 <svg  version="1.0" xmlns="http://www.w3.org/2000/svg"  width="577.000000pt" height="433.000000pt" viewBox="0 0 577.000000 433.000000"  preserveAspectRatio="xMidYMid meet">  <g transform="translate(0.000000,433.000000) scale(0.050000,-0.050000)" fill="#ffdd00" stroke="none"> <path d="M4005 8450 c-31 -35 -32 -83 -4 -101 12 -7 16 -28 9 -46 -10 -26 -7 -28 13 -8 19 19 20 30 1 49 -32 32 -31 83 1 64 14 -8 18 -7 10 2 -8 9 -5 28 8 43 29 36 -6 33 -38 -3z"/> <path d="M3511 7841 c-7 -10 7 -75 30 -143 30 -91 38 -146 27 -206 -22 -128 -11 -255 29 -336 47 -95 26 -133 -37 -66 -112 119 -145 -111 -40 -280 53 -86 39 -115 -26 -53 -56 52 -101 57 -86 8 6 -19 20 -80 32 -135 12 -55 36 -122 54 -148 29 -45 29 -47 -7 -33 -146 62 -169 -1 -66 -184 58 -103 59 -108 18 -95 -27 9 -50 5 -59 -11 -33 -53 60 -253 106 -226 13 7 17 6 9 -3 -8 -9 -5 -28 8 -43 26 -32 9 -35 -45 -6 -127 68 -13 -283 155 -480 79 -92 81 -101 21 -101 -56 0 -94 -35 -94 -86 0 -20 -25 -62 -55 -93 -30 -32 -75 -93 -100 -137 l-44 -81 80 -102 c44 -55 89 -101 99 -101 11 0 20 -13 20 -30 0 -16 -9 -30 -20 -30 -33 0 -120 -195 -120 -269 0 -53 18 -91 68 -147 70 -77 112 -101 412 -237 94 -42 215 -102 270 -132 55 -30 147 -80 205 -109 l105 -54 0 -300 0 -299 73 -107 c90 -130 86 -130 179 -1 l77 105 7 290 c8 296 35 375 130 379 9 1 56 28 104 61 111 76 509 280 547 280 55 0 237 98 299 162 l62 64 -39 76 c-49 96 -134 222 -165 244 -18 13 -18 20 2 27 35 14 136 124 166 180 27 50 -84 267 -136 267 -16 0 -26 24 -26 60 0 61 -11 70 -130 110 -39 14 -39 15 5 31 92 36 348 539 274 539 -6 0 -38 -14 -70 -31 -65 -33 -81 -7 -22 35 56 39 123 159 123 221 0 58 -35 72 -76 31 -42 -42 -52 3 -10 49 135 148 141 370 6 235 -64 -64 -75 -12 -16 80 37 59 86 257 68 275 -7 6 -39 -14 -72 -45 -69 -67 -78 -42 -19 56 40 69 80 334 50 334 -8 0 -43 -23 -76 -51 -71 -60 -127 -37 -69 27 46 50 72 204 59 344 -8 87 0 142 32 228 70 184 47 197 -135 74 -435 -296 -655 -835 -554 -1359 59 -309 36 -534 -56 -547 -36 -5 -44 -25 -57 -136 -22 -192 -23 -197 -34 -194 -28 7 -101 -51 -88 -70 8 -13 4 -17 -10 -8 -28 18 -31 125 -3 142 33 21 25 270 -9 270 -37 0 -58 69 -35 114 24 47 26 219 2 280 -12 32 -11 44 2 36 27 -17 25 57 -4 120 -13 29 -34 47 -50 41 -14 -5 -26 -1 -26 10 0 10 -27 19 -59 19 -66 0 -121 65 -78 92 14 8 18 5 10 -7 -8 -13 17 -31 62 -46 41 -13 96 -37 123 -53 47 -30 47 -29 38 35 -8 51 -2 66 27 74 44 12 44 9 9 92 -80 192 -297 200 -392 13 -47 -92 -48 -100 -14 -100 39 0 72 -104 46 -146 -16 -25 -15 -45 4 -75 21 -34 20 -46 -5 -71 -37 -37 -37 -33 -7 -98 19 -43 18 -56 -4 -70 -22 -14 -23 -27 -5 -64 12 -25 19 -68 15 -96 -4 -27 -7 -56 -8 -64 -1 -7 -22 -16 -47 -20 -56 -8 -78 -216 -29 -273 36 -42 23 -629 -14 -617 -12 4 -22 20 -22 36 0 17 -36 37 -90 51 -177 45 -267 104 -165 109 21 1 25 5 10 11 -14 6 -26 30 -27 54 -1 29 -5 34 -13 13 -24 -61 -105 -110 -105 -62 0 9 -23 17 -51 17 -49 0 -50 -1 -15 -41 36 -41 36 -41 -24 -7 -33 18 -85 42 -115 52 -30 11 -55 30 -55 43 0 17 7 17 27 1 38 -32 53 -8 53 82 0 56 -7 73 -25 63 -14 -8 -8 5 14 29 37 42 37 44 2 30 -25 -9 -33 -6 -24 8 8 12 5 28 -7 35 -11 7 -21 37 -21 66 -1 52 -2 53 -20 9 -18 -45 -59 -62 -59 -25 0 11 10 20 21 20 12 0 16 8 10 19 -6 10 -2 24 9 31 11 7 15 21 9 31 -6 11 3 19 20 19 17 0 31 -10 31 -23 0 -13 18 -7 41 14 40 36 40 36 26 0 -9 -26 -7 -33 10 -23 30 19 30 -13 -1 -44 -19 -19 -17 -24 8 -24 39 0 74 124 39 136 -12 4 -17 34 -12 70 5 35 4 53 -2 39 -7 -14 -27 -25 -46 -25 -24 1 -26 5 -8 17 27 16 37 100 28 233 -5 65 -9 72 -23 40 -15 -34 -17 -35 -19 -5 -1 37 -31 47 -50 17 -6 -10 0 -23 14 -29 25 -10 -33 -21 -80 -14 -27 3 -33 -36 -13 -87 18 -46 53 -40 39 6 -16 51 10 65 57 31 31 -22 33 -36 16 -86 -11 -33 -15 -65 -9 -71 6 -7 -3 -12 -22 -12 -18 0 -33 -10 -33 -23 0 -13 -6 -18 -13 -11 -15 15 -67 -22 -67 -48 0 -22 61 0 107 40 34 30 36 28 30 -28 -5 -44 -19 -62 -51 -66 -29 -4 -47 -25 -56 -65 -7 -33 -22 -59 -34 -59 -11 0 -15 14 -9 30 7 17 3 30 -8 30 -10 0 -19 10 -19 22 0 12 14 17 30 11 17 -7 30 -5 30 4 0 33 -27 41 -68 19 -39 -21 -40 -20 -12 14 28 34 27 36 -15 25 -25 -6 -40 -3 -34 7 6 10 24 18 39 18 15 0 33 9 40 20 19 31 -8 60 -44 46 -29 -11 -28 -15 5 -28 36 -14 35 -15 -6 -17 -32 -1 -45 10 -45 39 0 22 7 38 15 35 8 -3 18 4 23 15 4 11 24 32 45 46 20 15 37 41 37 59 0 28 -4 28 -27 -4 -25 -34 -27 -34 -40 -2 -9 24 -2 38 25 45 34 9 74 90 65 131 -1 8 37 9 86 2 l89 -12 1 354 c0 195 5 362 11 371 73 119 -19 554 -160 751 -109 153 -102 200 11 69 178 -208 247 -424 229 -725 -36 -627 -36 -659 8 -636 52 28 62 27 62 -8 0 -15 16 -32 35 -37 26 -7 24 -10 -10 -12 -25 -1 -45 -10 -45 -19 0 -9 20 -27 45 -39 l45 -22 -48 4 c-26 2 -52 -9 -58 -24 -6 -19 1 -24 23 -16 17 7 37 4 43 -5 6 -10 -5 -22 -25 -27 -27 -7 -24 -10 10 -12 25 -1 45 -12 45 -24 0 -12 -12 -18 -26 -12 -14 5 -46 -11 -70 -36 l-44 -46 67 15 c55 13 67 10 65 -17 -5 -74 -118 -168 -139 -116 -16 40 -10 -52 7 -106 11 -33 17 -38 18 -15 2 34 33 45 107 38 43 -3 44 11 4 51 -17 17 -25 36 -17 43 7 7 17 2 22 -11 5 -13 21 -19 35 -14 17 7 26 -3 24 -26 -2 -23 13 -38 42 -42 25 -4 45 -16 45 -28 0 -12 -21 -15 -50 -8 -29 7 -50 4 -50 -8 0 -11 -14 -20 -31 -20 -17 0 -26 8 -20 18 6 10 -7 14 -29 8 -22 -6 -39 -25 -38 -43 1 -23 4 -25 12 -7 8 20 21 19 60 -7 28 -18 45 -23 37 -11 -8 13 3 22 27 22 45 0 84 -52 123 -164 15 -41 35 -69 45 -63 10 7 8 -7 -5 -30 -21 -40 -19 -41 28 -20 27 13 44 31 38 42 -7 12 7 14 35 5 47 -13 47 -13 -5 33 -76 67 -97 120 -97 244 0 98 -5 110 -47 121 -101 25 -123 307 -44 562 67 217 30 581 -82 820 -146 309 -556 729 -616 631z m2209 -191 c0 -6 -38 -58 -85 -116 -162 -197 -185 -279 -184 -634 2 -675 9 -801 46 -815 42 -16 66 -41 114 -115 21 -33 50 -67 64 -76 14 -9 25 -38 25 -65 0 -27 11 -50 25 -51 20 -1 20 -3 0 -11 -14 -6 -25 -23 -25 -37 0 -15 -9 -33 -21 -40 -13 -8 -17 6 -11 37 12 70 -8 145 -30 110 -13 -21 -23 -18 -47 13 -20 28 -30 31 -30 12 -1 -46 -25 -8 -34 52 -16 119 -22 136 -51 142 -29 6 -69 -209 -64 -341 1 -19 -6 -35 -15 -35 -10 0 -17 -16 -17 -35 0 -19 -23 -80 -51 -134 -50 -99 -52 -166 -4 -139 20 11 20 8 0 -13 -38 -41 -34 -131 5 -99 25 21 30 19 30 -12 0 -28 5 -31 24 -12 18 18 16 29 -10 49 -41 31 -34 118 12 164 32 32 34 31 34 -8 0 -22 10 -41 23 -41 14 0 10 -15 -10 -37 -19 -21 -28 -52 -21 -70 17 -45 -48 -145 -76 -117 -12 12 -33 16 -48 10 -38 -14 -56 42 -30 91 45 83 4 108 -72 45 -71 -59 -131 -150 -111 -171 20 -20 48 -12 34 10 -8 13 2 19 24 15 22 -3 35 4 32 20 -4 15 3 21 15 14 18 -11 28 20 25 85 0 13 9 19 20 12 13 -8 15 -3 5 13 -11 17 -8 21 7 12 17 -10 17 -25 2 -54 -12 -22 -19 -68 -15 -102 4 -42 -4 -65 -24 -71 -26 -7 -26 -5 -1 12 17 12 24 27 17 34 -23 22 -56 -11 -57 -57 0 -41 -2 -41 -27 -9 -49 64 -103 38 -96 -46 1 -6 -21 -12 -49 -15 -28 -2 -44 5 -37 16 7 11 3 20 -9 20 -11 0 -21 -13 -21 -28 0 -15 -13 -33 -30 -39 -25 -10 -30 19 -30 190 0 174 4 200 31 189 19 -7 52 9 81 39 28 27 58 45 67 39 20 -12 46 46 31 70 -5 8 6 14 25 13 22 -2 35 13 37 42 1 25 -5 45 -15 45 -9 0 -17 13 -17 29 0 37 113 98 158 86 52 -14 88 35 49 67 -28 24 -27 30 11 60 23 19 42 49 42 67 0 19 9 28 20 21 11 -7 20 -3 20 9 0 11 -17 21 -39 21 -21 0 -51 13 -67 29 -16 16 -35 24 -42 17 -6 -7 -12 -4 -12 7 0 10 11 30 24 43 19 19 16 24 -14 24 -36 0 -36 1 1 30 22 17 30 29 19 28 -62 -8 -76 6 -30 31 43 24 52 24 67 -2 15 -26 20 -25 42 6 53 78 54 207 1 207 -14 0 -31 15 -38 33 -11 28 -8 29 18 7 55 -45 81 8 29 57 -34 32 -53 37 -82 21 -20 -10 -37 -12 -37 -2 0 9 -24 30 -52 45 l-53 28 48 13 c26 6 58 3 72 -8 14 -10 25 -12 25 -4 0 8 23 0 50 -18 48 -31 50 -31 50 8 0 22 -7 40 -16 40 -9 0 -34 13 -55 29 -37 28 -36 29 16 20 l55 -10 -10 193 c-12 206 31 427 104 544 86 138 246 303 246 254z m-1900 -511 c0 -10 -9 -19 -20 -19 -11 0 -20 -13 -20 -30 0 -18 -17 -29 -45 -28 -31 2 -35 5 -12 11 38 11 63 61 45 91 -8 13 -19 10 -30 -7 -10 -15 -18 -17 -18 -5 0 12 6 27 13 34 16 16 87 -22 87 -47z m1795 -185 c14 0 25 -15 25 -33 0 -18 11 -44 24 -57 19 -19 18 -30 -3 -49 -21 -20 -24 -20 -13 0 9 15 2 29 -17 35 -102 32 -101 32 -73 49 21 13 17 20 -16 30 -23 8 -37 23 -30 34 7 11 27 14 45 6 18 -8 44 -14 58 -15z m-1841 -29 c0 -34 -28 -64 -59 -65 -8 0 -14 20 -13 45 0 25 6 34 11 20 11 -27 49 -35 45 -10 -4 22 1 45 9 45 3 0 6 -16 7 -35z m-16 -123 c21 -14 18 -21 -15 -31 -56 -18 -55 -51 0 -51 24 0 37 -7 29 -15 -26 -26 -165 -17 -165 10 0 14 11 25 25 25 14 0 31 18 38 40 14 43 43 50 88 22z m325 -87 c-11 -11 -37 -14 -57 -5 -24 10 -28 18 -11 24 14 5 20 19 13 30 -7 11 7 9 32 -4 31 -16 38 -30 23 -45z m23 -69 c-6 -14 1 -26 16 -26 18 0 20 -6 5 -21 -15 -15 -41 -12 -89 10 -61 28 -62 30 -13 21 55 -11 78 18 30 36 -14 6 -6 9 18 8 26 -1 39 -12 33 -28z m1517 -6 c11 0 13 10 6 22 -10 16 -3 16 26 1 22 -12 47 -15 56 -7 8 8 9 3 2 -10 -8 -13 -28 -19 -44 -13 -20 8 -26 2 -18 -19 10 -27 3 -26 -60 2 -59 27 -66 35 -37 46 20 7 39 5 43 -5 3 -9 15 -17 26 -17z m-910 -29 c-6 -15 2 -39 18 -52 42 -35 35 -59 -16 -57 -34 2 -37 5 -10 12 20 5 30 17 24 28 -7 10 -20 13 -31 7 -10 -7 -17 0 -13 15 3 14 -11 25 -30 23 -19 -1 -29 6 -23 17 7 10 25 14 40 8 15 -6 28 -2 28 9 0 10 5 19 12 19 7 0 7 -13 1 -29z m-1006 -101 c52 -22 6 -45 -68 -34 -46 7 -55 15 -39 34 23 27 44 27 107 0z m359 -67 c-8 -32 -16 -34 -57 -15 -41 19 -43 24 -13 36 60 23 81 17 70 -21z m1503 18 c7 -10 29 -15 51 -11 22 4 44 -1 51 -11 6 -11 0 -19 -15 -20 -14 0 -8 -10 13 -23 39 -22 39 -23 0 -37 -36 -13 -34 -17 16 -36 50 -20 76 -46 40 -41 -45 8 -63 -5 -51 -37 11 -29 8 -31 -17 -10 -19 16 -37 17 -50 4 -12 -12 -33 -9 -58 11 -32 25 -33 28 -4 18 36 -13 43 -2 64 102 7 37 5 50 -5 34 -18 -27 -34 -15 -72 51 -16 29 20 35 37 6z m-1889 -24 c0 -10 18 -9 40 3 32 17 37 15 27 -11 -8 -20 -27 -28 -50 -22 -20 5 -43 0 -49 -11 -8 -13 -19 -10 -30 7 -13 21 -17 19 -18 -9 0 -20 -8 -31 -18 -25 -14 8 -16 63 -4 84 8 12 102 -2 102 -16z m1634 -32 c33 -34 37 -45 15 -45 -17 0 -35 13 -42 30 -6 16 -19 25 -29 19 -10 -7 -9 -28 3 -50 14 -27 14 -39 0 -39 -12 0 -21 -10 -21 -21 0 -12 9 -16 21 -8 28 17 79 -28 79 -68 -1 -22 -6 -25 -15 -10 -8 12 -33 26 -55 30 -29 6 -40 24 -40 66 0 31 -11 61 -25 66 -14 5 -25 25 -25 45 0 50 78 42 134 -15z m-1706 -93 c-8 -22 6 -24 71 -12 83 15 118 -14 41 -34 -22 -6 -40 -19 -40 -28 0 -10 -10 -18 -21 -18 -12 0 -15 10 -7 23 8 14 5 18 -7 10 -12 -7 -42 -5 -68 6 -26 10 -36 19 -22 20 14 0 25 15 25 31 0 17 9 30 19 30 11 0 15 -12 9 -28z m1132 -14 c0 -10 -43 -18 -95 -18 -58 0 -85 7 -69 17 15 9 50 13 78 7 36 -7 47 -3 38 13 -9 14 -3 18 17 11 17 -7 31 -20 31 -30z m-30 -78 c7 -11 3 -20 -9 -20 -11 0 -21 -15 -21 -32 0 -25 6 -28 27 -11 21 18 36 13 65 -20 28 -31 30 -40 8 -33 -16 5 -58 2 -93 -7 -95 -27 -177 9 -91 39 77 26 83 41 14 33 -28 -3 -45 3 -39 13 6 10 36 18 65 18 42 1 47 5 24 20 -26 17 -25 19 4 20 18 0 39 -9 46 -20z m-1050 -58 c-1 -25 -4 -26 -17 -6 -14 22 -22 22 -46 -2 -22 -22 -33 -23 -51 -3 -31 33 -19 42 54 42 42 0 60 -9 60 -31z m1974 21 c14 -2 19 -17 13 -34 -8 -19 4 -43 30 -61 24 -17 43 -44 43 -60 0 -18 10 -24 23 -16 14 9 18 5 9 -9 -8 -13 -28 -23 -44 -23 -18 0 -24 10 -16 23 9 14 5 18 -9 9 -13 -8 -29 -1 -35 17 -7 17 -21 25 -32 18 -13 -7 -15 4 -7 29 7 22 3 46 -8 53 -12 8 -16 1 -9 -18 7 -17 2 -31 -10 -31 -12 0 -22 10 -22 21 0 12 -10 15 -23 7 -15 -9 -18 -5 -8 10 8 13 5 35 -6 49 -20 24 3 27 111 16z m-1974 -112 c0 -47 -73 -78 -88 -38 -7 18 -8 37 -2 43 5 6 10 -2 11 -18 0 -20 6 -18 21 7 24 43 58 46 58 6z m1075 -25 c-42 -11 -47 -46 -6 -46 16 0 34 -9 41 -21 9 -13 -5 -16 -38 -8 -29 7 -52 5 -52 -5 0 -25 -117 -8 -133 19 -7 12 -4 16 7 9 11 -7 37 5 56 26 23 25 60 39 98 38 34 -2 46 -7 27 -12z m32 -128 c12 -2 -13 -10 -57 -19 -44 -9 -102 -10 -130 -3 -44 12 -41 15 30 26 44 7 92 9 107 5 14 -4 37 -8 50 -9z m2 -79 c-7 -11 -30 -15 -51 -8 -21 6 -38 2 -38 -10 0 -11 12 -21 27 -21 40 0 100 -73 74 -89 -11 -7 -21 -24 -21 -37 0 -14 8 -12 20 6 11 18 20 20 20 6 0 -12 16 -27 35 -32 19 -5 -62 -10 -180 -12 -132 -1 -215 6 -215 18 0 11 11 21 25 22 14 2 34 5 45 7 11 3 32 6 46 8 15 2 20 13 13 25 -7 12 -30 17 -50 12 -24 -6 -33 -1 -26 17 6 15 24 21 41 15 18 -7 39 2 50 21 10 19 28 28 40 20 14 -8 16 -4 7 12 -9 14 -37 21 -63 16 -27 -5 -48 -2 -48 8 0 9 59 17 131 17 86 0 127 -7 118 -21z m783 -15 c10 3 40 -10 67 -29 31 -22 39 -35 20 -35 -24 -1 -24 -4 -2 -18 16 -10 19 -22 8 -29 -11 -6 -15 -55 -10 -108 7 -73 1 -103 -23 -123 -18 -15 -32 -42 -33 -59 0 -26 -5 -25 -23 7 -12 22 -32 47 -44 55 -15 10 -14 14 3 15 46 0 55 -4 50 -23 -4 -11 3 -14 15 -7 11 7 17 19 12 27 -5 8 -2 27 8 43 22 36 -11 100 -52 100 -24 0 -28 -14 -18 -60 10 -47 6 -60 -18 -60 -18 0 -32 -11 -32 -25 -1 -17 -6 -16 -19 4 -22 35 -7 67 22 49 13 -8 12 4 -2 30 -17 31 -17 42 0 42 13 0 18 14 11 31 -6 18 -3 26 8 19 11 -7 20 -4 20 7 0 11 -11 24 -25 30 -15 6 -11 10 10 11 38 2 47 32 15 52 -11 7 -20 32 -20 56 1 31 6 36 17 18 9 -14 25 -23 35 -20z m-692 -247 c0 -13 -6 -18 -13 -11 -19 19 -90 -25 -76 -47 6 -11 20 -14 30 -8 11 6 19 1 19 -12 0 -14 -17 -19 -40 -13 -22 6 -40 2 -40 -8 0 -10 18 -18 40 -18 41 0 61 -368 27 -495 -13 -48 -39 -61 -42 -20 -1 14 -8 50 -14 82 -8 36 -5 52 8 43 12 -7 21 -3 21 8 0 11 -9 25 -20 32 -11 7 -20 38 -20 69 0 31 -15 68 -33 84 -30 24 -32 21 -19 -33 15 -63 19 -213 10 -380 -4 -61 -11 -18 -18 110 -9 155 -13 77 -16 -296 -3 -332 -11 -502 -24 -494 -34 21 -27 1230 8 1230 47 0 85 -60 51 -81 -16 -10 -20 -19 -9 -20 11 -1 36 -5 55 -9 23 -4 30 2 21 17 -8 13 -12 39 -9 58 3 22 -13 43 -41 54 -26 10 -33 19 -16 20 25 1 25 5 3 19 -58 36 -103 -38 -103 -167 -1 -79 -7 -111 -19 -93 -9 16 -13 59 -7 95 9 51 4 67 -19 67 -45 0 -20 -320 26 -337 11 -3 18 -26 17 -50 -2 -33 -5 -35 -12 -8 -12 47 -46 45 -46 -3 0 -21 -13 -43 -30 -49 -26 -10 -30 30 -30 289 0 165 7 296 15 291 9 -5 38 4 65 20 28 16 33 25 13 18 -21 -6 -58 6 -87 29 l-51 40 212 0 c149 0 213 -7 213 -23z m670 -172 c-8 -19 -15 -46 -16 -60 0 -14 -10 -25 -21 -25 -13 0 -13 -8 2 -23 14 -14 16 -38 5 -66 -18 -49 5 -111 29 -73 7 12 4 22 -9 22 -15 0 -15 11 0 41 29 53 63 31 42 -27 -9 -24 -14 -55 -11 -69 3 -15 1 -17 -4 -5 -6 11 -18 15 -28 10 -9 -6 -26 6 -37 27 -29 53 -46 203 -23 203 10 0 24 18 31 40 7 22 22 40 33 40 12 0 15 -15 7 -35z m168 -290 c16 6 3 -22 -27 -62 -52 -68 -35 -168 19 -117 9 8 5 -6 -8 -31 -13 -25 -15 -45 -4 -45 10 0 23 11 29 25 6 16 10 13 11 -8 1 -18 -13 -38 -30 -45 -21 -8 -29 -27 -22 -53 15 -56 -48 -120 -66 -68 -9 25 -18 29 -28 13 -8 -13 -28 -24 -44 -24 -17 0 -25 9 -18 20 7 11 3 20 -9 20 -11 0 -21 -9 -21 -20 0 -11 -13 -20 -30 -20 -16 0 -30 7 -30 15 0 23 82 70 97 55 7 -8 24 21 38 63 l24 77 -7 -75 c-4 -41 0 -75 10 -75 10 0 18 27 18 60 0 33 10 60 21 60 12 0 19 15 15 33 -7 36 -76 57 -76 23 0 -11 -14 -15 -31 -8 -55 21 -209 -141 -209 -221 0 -37 9 -67 20 -67 11 0 20 -16 20 -36 0 -20 18 -56 41 -80 l41 -44 -48 0 c-129 0 -490 -198 -444 -243 4 -5 -7 -9 -26 -11 -19 -1 -56 -9 -82 -17 -41 -13 -47 -10 -35 19 7 20 13 183 13 363 0 273 5 326 28 317 70 -27 441 103 539 189 34 30 39 30 64 -7 63 -92 142 -146 116 -80 -6 17 -4 30 6 30 52 1 71 35 46 82 -24 46 -23 47 13 16 21 -18 51 -28 66 -23z m-1755 -38 c85 -59 343 -155 433 -161 l84 -6 0 -345 c0 -231 -7 -345 -21 -345 -34 0 -103 41 -175 103 -89 78 -221 142 -267 131 -20 -6 -33 -3 -27 5 5 9 -17 21 -50 28 l-59 12 49 93 c73 138 66 188 -40 285 -49 46 -102 83 -117 83 -16 0 -34 14 -40 30 -7 18 0 30 16 30 15 0 49 26 74 57 49 60 53 60 140 0z m-363 -107 c42 -3 148 -92 174 -145 30 -64 81 -94 59 -35 -7 17 -8 30 -2 30 16 0 89 -80 74 -82 -138 -13 -292 -4 -312 20 -19 24 -16 25 18 7 26 -14 52 -15 70 -4 21 13 22 19 4 21 -14 2 -33 4 -43 6 -10 1 -42 27 -70 58 -53 57 -68 86 -33 65 10 -6 24 -3 31 9 7 11 3 20 -9 20 -11 0 -21 14 -21 31 0 20 9 26 25 15 14 -8 30 -16 35 -16z m240 -395 c0 -56 -83 -41 -148 26 -32 32 -66 59 -75 59 -9 0 -17 8 -17 17 0 9 54 -2 120 -25 85 -30 120 -52 120 -77z m1880 97 c0 -21 -130 -87 -153 -78 -43 16 -31 40 18 36 24 -2 57 9 71 23 25 25 64 37 64 19z m-2132 -95 c-6 -9 8 -17 30 -17 22 0 45 -9 52 -20 7 -11 52 -30 101 -42 49 -13 84 -30 78 -40 -6 -9 -34 -7 -63 4 -37 14 -57 13 -67 -3 -7 -12 -21 -21 -31 -20 -10 2 -21 -11 -24 -28 -9 -39 24 -40 56 -1 38 46 62 36 48 -20 -15 -61 13 -65 63 -9 32 36 33 39 3 28 -19 -7 -34 -5 -34 6 0 15 66 21 96 8 8 -4 -38 -59 -103 -123 -54 -52 -55 -57 -20 -77 20 -12 29 -22 19 -22 -10 -1 -2 -19 18 -41 20 -22 27 -40 17 -40 -11 0 -39 23 -63 50 -24 28 -37 50 -29 50 8 0 -11 18 -44 39 -32 21 -65 35 -72 30 -8 -4 -13 31 -11 79 1 48 8 84 15 80 7 -4 17 10 23 32 8 30 -2 43 -36 52 -52 13 -82 61 -39 61 15 0 23 -7 17 -16z m2003 -18 c12 11 33 8 55 -8 34 -25 33 -27 -10 -26 -25 1 -59 -2 -75 -7 -16 -4 -32 9 -37 31 -7 33 -3 35 20 16 17 -15 36 -17 47 -6z m153 -112 c-13 -22 -8 -51 14 -89 38 -67 -12 -152 -61 -103 -18 18 -16 27 9 36 29 11 28 18 -8 67 -46 62 -33 122 25 122 30 0 35 -7 21 -33z m-135 -78 c7 -40 18 -85 24 -100 16 -41 -33 -36 -65 6 -24 32 -27 29 -27 -24 -1 -80 -34 -44 -58 64 -19 86 21 130 50 55 19 -50 49 -33 35 20 -7 28 -4 50 8 50 11 0 26 -32 33 -71z m-172 -66 c28 -93 29 -123 6 -123 -10 0 -23 25 -30 55 -7 30 -18 75 -25 100 -7 25 -4 45 7 45 10 0 29 -35 42 -77z m-1518 -5 c-27 -51 36 -82 65 -31 10 19 27 28 38 22 13 -8 12 -22 -3 -40 -12 -15 -16 -38 -8 -51 10 -16 7 -19 -11 -8 -20 12 -23 7 -14 -18 8 -19 5 -29 -5 -23 -10 7 -24 3 -31 -9 -24 -38 -52 -21 -31 19 29 53 27 61 -19 61 -22 0 -40 -9 -40 -19 0 -11 14 -14 32 -7 28 10 29 6 5 -31 -17 -28 -30 -34 -35 -18 -4 14 -17 31 -27 37 -23 15 67 179 90 165 8 -5 6 -27 -6 -49z m1421 7 c0 -30 9 -68 20 -85 16 -25 19 -25 20 -2 0 16 5 24 10 18 17 -17 -11 -72 -43 -84 -16 -6 -24 -4 -18 6 6 10 -3 29 -19 42 -32 26 -37 17 -31 -53 2 -24 -8 -50 -21 -58 -14 -9 -19 -7 -12 5 7 11 -12 42 -41 68 -50 44 -52 45 -17 3 21 -25 29 -45 17 -45 -21 0 -46 44 -57 102 -4 17 6 31 22 31 15 0 23 -8 16 -19 -6 -11 1 -15 16 -10 15 6 25 25 22 43 -6 36 26 45 46 13 24 -39 51 -19 38 30 -8 31 -4 50 10 50 12 0 22 -25 22 -55z m-783 -70 c20 -20 28 -19 41 2 12 19 20 6 27 -40 6 -37 8 -70 4 -74 -15 -17 -177 31 -185 56 -7 19 1 23 23 15 24 -9 33 -2 33 27 0 45 21 50 57 14z m-360 -30 c9 -19 14 -46 9 -60 -5 -14 1 -25 14 -25 12 0 17 -9 10 -20 -7 -12 -20 -16 -29 -11 -9 6 -27 -2 -40 -18 -19 -22 -16 -27 13 -22 20 2 46 -8 58 -25 18 -24 29 -18 65 41 32 52 57 70 92 68 26 -2 44 -6 40 -11 -4 -4 0 -22 9 -40 10 -18 9 -53 -3 -82 -42 -105 -38 -145 16 -131 33 8 48 4 44 -12 -8 -38 69 -45 89 -9 10 18 27 28 37 21 11 -6 19 32 19 90 0 83 6 101 35 101 19 0 58 5 85 11 l50 10 -50 -21 c-33 -15 -41 -27 -25 -37 13 -8 23 -41 21 -74 -4 -71 7 -114 34 -134 11 -8 6 -15 -13 -15 -18 0 -38 22 -45 51 -15 57 -52 48 -52 -12 0 -22 -9 -39 -20 -39 -11 0 -20 9 -20 20 0 11 -9 20 -20 20 -11 0 -18 -11 -15 -25 3 -16 -19 -25 -59 -26 -34 0 -59 5 -55 12 10 17 -151 81 -172 69 -16 -10 -48 49 -42 77 2 9 -16 11 -41 5 -26 -7 -35 -6 -21 0 14 6 25 20 25 31 0 11 -10 13 -23 5 -15 -9 -18 -5 -8 10 10 16 -1 21 -40 14 -80 -15 -166 8 -179 48 -8 24 -26 33 -56 28 -41 -8 -41 -8 -4 9 30 13 49 8 76 -20 19 -20 42 -37 49 -37 7 0 2 11 -11 24 -33 33 -30 78 7 132 37 53 120 58 146 9z m818 -82 c-8 -29 8 -41 78 -60 87 -23 88 -24 57 -71 -38 -57 -111 -50 -100 10 5 26 -4 38 -29 38 -56 0 -92 53 -61 90 34 41 67 38 55 -7z m-134 -82 c-29 -54 -26 -65 14 -53 19 6 49 1 65 -10 26 -19 25 -20 -3 -11 -19 6 -39 -2 -45 -18 -13 -34 15 -37 67 -9 31 16 35 13 27 -20 -6 -22 -22 -40 -37 -40 -14 0 -39 -5 -55 -11 -51 -20 -127 152 -82 185 51 38 73 32 49 -13z m-302 -67 c-2 -95 -27 -153 -46 -105 -10 26 -26 32 -65 22 l-51 -13 63 92 c69 100 101 101 99 4z m110 -441 c1 -51 -6 -93 -15 -93 -10 0 -16 -61 -14 -135 6 -176 4 -190 -21 -174 -12 7 -17 57 -11 120 5 60 1 114 -10 120 -10 6 -18 20 -18 31 0 11 9 15 20 8 11 -7 20 -3 20 9 0 11 -11 22 -25 23 -18 1 -17 4 2 12 23 9 23 14 0 28 -19 12 -20 17 -3 18 14 0 21 11 17 25 -34 112 -32 134 13 118 36 -14 44 -33 45 -110z"/> <path d="M5287 5670 c7 -18 1 -30 -15 -30 -15 0 -33 -14 -40 -32 -18 -46 -15 -68 10 -68 12 0 17 15 10 32 -9 24 -4 29 19 20 17 -6 26 -3 20 7 -7 10 -3 24 9 31 27 17 26 70 -2 70 -12 0 -17 -13 -11 -30z"/> <path d="M5123 5513 c-41 -44 -42 -49 -10 -75 30 -25 33 -23 22 17 -7 30 0 51 22 64 18 10 28 23 21 29 -6 7 -31 -9 -55 -35z"/> <path d="M5020 5377 c0 -18 20 -38 45 -45 l45 -12 -50 -42 c-27 -23 -36 -35 -20 -27 91 45 123 132 44 120 -19 -3 -41 5 -49 17 -9 14 -14 10 -15 -11z"/> <path d="M4892 5263 c-17 -27 30 -103 64 -103 18 0 20 9 5 35 -44 78 -56 89 -69 68z"/> <path d="M4073 4183 c-39 -43 -43 -103 -7 -103 37 0 74 42 74 83 0 52 -30 61 -67 20z"/> <path d="M4305 4040 c-32 -51 -32 -80 2 -80 38 0 100 73 84 99 -21 33 -59 25 -86 -19z"/> <path d="M3945 6227 c-14 -6 -25 -28 -25 -50 0 -55 49 -36 52 20 2 23 2 42 0 41 -1 0 -13 -6 -27 -11z"/> <path d="M3909 6053 c-7 -16 -8 -55 -3 -86 7 -53 8 -53 11 10 2 53 10 65 35 55 19 -7 28 -3 23 12 -12 37 -54 43 -66 9z"/> <path d="M4122 5368 c46 -46 113 -101 150 -121 38 -20 68 -43 68 -51 0 -18 -58 1 -99 32 -22 17 -25 16 -12 -5 9 -16 7 -33 -5 -41 -12 -7 14 -13 58 -13 71 0 79 5 68 41 -7 22 -14 51 -15 65 -1 14 -15 25 -31 25 -25 0 -25 -5 -1 -33 24 -30 23 -31 -17 -10 -26 13 -40 36 -34 51 7 17 -6 34 -31 42 -48 15 -54 46 -11 63 17 6 30 19 30 29 0 10 -13 18 -30 18 -16 0 -30 -14 -30 -31 0 -17 -9 -26 -20 -19 -12 7 -14 -2 -6 -24 12 -33 9 -32 -32 3 -42 37 -42 41 -8 54 27 11 22 14 -19 11 l-55 -3 82 -83z"/> <path d="M3988 5377 c-6 -9 9 -17 32 -17 27 0 37 -8 28 -23 -8 -13 -5 -18 6 -11 22 14 112 -53 96 -70 -6 -5 4 -9 21 -9 20 0 6 25 -41 73 -69 71 -121 91 -142 57z"/> </g> </svg> 